<svg width="69" height="62" viewBox="0 0 69 62" fill="none" xmlns="http://www.w3.org/2000/svg">
<path d="M37.9378 61.4367C29.2878 61.4367 20.6478 61.3567 11.9978 61.4767C8.56781 61.5267 7.4578 60.4167 7.6178 56.7767C8.1678 44.0167 9.01782 31.1667 5.78782 18.6167C4.44782 13.3867 4.3078 7.75668 0.867803 3.07668C-1.4522 -0.0833199 1.3978 -0.0233195 3.3678 0.00668051C14.9878 0.176681 25.8278 3.41668 35.8178 9.15668C51.3878 18.1067 61.1978 31.5567 66.1178 48.8167C66.8878 51.5167 67.4978 54.1767 68.0678 56.8967C68.8878 60.7567 67.1278 61.5767 63.8478 61.5467C55.2078 61.4767 46.5578 61.5267 37.9178 61.5267V61.4367H37.9378Z" fill="#F9D00C"/>
</svg>
